HIERARCHY
ROOT Hips
{
	OFFSET 0.000000 97.167313 0.000000
	CHANNELS 6 Xposition Yposition Zposition Xrotation Yrotation Zrotation
	JOINT Spine
	{
		OFFSET 0.000000 13.784798 0.064400
		CHANNELS 3 Xrotation Yrotation Zrotation
		JOINT Spine1
		{
			OFFSET 0.000000 12.037903 0.404700
			CHANNELS 3 Xrotation Yrotation Zrotation
			JOINT Spine2
			{
				OFFSET 0.000000 17.795601 0.420200
				CHANNELS 3 Xrotation Yrotation Zrotation
				JOINT Neck
				{
					OFFSET 0.000000 39.131302 11.954600
					CHANNELS 3 Xrotation Yrotation Zrotation
					JOINT Head
					{
						OFFSET 0.000000 14.456192 15.627699
						CHANNELS 3 Xrotation Yrotation Zrotation
						JOINT HeadTop_End
						{
							OFFSET 0.000000 15.703506 7.603401
							CHANNELS 3 Xrotation Yrotation Zrotation
							End Site
							{
								OFFSET 0.000000 17.447403 0.000000
							}
						}
					}
				}
				JOINT LeftShoulder
				{
					OFFSET 17.399500 24.608795 1.168800
					CHANNELS 3 Xrotation Yrotation Zrotation
					JOINT LeftArm
					{
						OFFSET 18.980635 5.765305 1.818600
						CHANNELS 3 Xrotation Yrotation Zrotation
						JOINT LeftForeArm
						{
							OFFSET 49.290169 0.000000 0.000000
							CHANNELS 3 Xrotation Yrotation Zrotation
							JOINT LeftHand
							{
								OFFSET 31.562012 0.000000 0.000000
								CHANNELS 3 Xrotation Yrotation Zrotation
								JOINT LeftHandThumb1
								{
									OFFSET 6.133995 -4.388519 7.076070
									CHANNELS 3 Xrotation Yrotation Zrotation
									JOINT LeftHandThumb2
									{
										OFFSET 6.037666 -3.485840 3.485847
										CHANNELS 3 Xrotation Yrotation Zrotation
										JOINT LeftHandThumb3
										{
											OFFSET 6.496506 -3.750763 3.750761
											CHANNELS 3 Xrotation Yrotation Zrotation
											JOINT LeftHandThumb4
											{
												OFFSET 5.616882 -3.242905 3.242910
												CHANNELS 3 Xrotation Yrotation Zrotation
												End Site
												{
													OFFSET -1.254608 7.132141 0.375429
												}
											}
										}
									}
								}
								JOINT LeftHandPinky1
								{
									OFFSET 18.920792 -0.453171 -11.426712
									CHANNELS 3 Xrotation Yrotation Zrotation
									JOINT LeftHandPinky2
									{
										OFFSET 4.919586 0.000000 0.000000
										CHANNELS 3 Xrotation Yrotation Zrotation
										JOINT LeftHandPinky3
										{
											OFFSET 5.233047 0.000000 0.000000
											CHANNELS 3 Xrotation Yrotation Zrotation
											JOINT LeftHandPinky4
											{
												OFFSET 5.571716 0.000000 0.000000
												CHANNELS 3 Xrotation Yrotation Zrotation
												End Site
												{
													OFFSET -3.459808 4.342407 -0.466164
												}
											}
										}
									}
								}
								JOINT LeftHandRing1
								{
									OFFSET 22.726120 -0.094986 -6.500475
									CHANNELS 3 Xrotation Yrotation Zrotation
									JOINT LeftHandRing2
									{
										OFFSET 6.408615 0.000000 0.000000
										CHANNELS 3 Xrotation Yrotation Zrotation
										JOINT LeftHandRing3
										{
											OFFSET 6.150223 0.000000 0.000000
											CHANNELS 3 Xrotation Yrotation Zrotation
											JOINT LeftHandRing4
											{
												OFFSET 6.145386 0.000000 0.000000
												CHANNELS 3 Xrotation Yrotation Zrotation
												End Site
												{
													OFFSET -3.671402 4.923981 -0.202372
												}
											}
										}
									}
								}
								JOINT LeftHandMiddle1
								{
									OFFSET 23.373947 0.000000 0.000001
									CHANNELS 3 Xrotation Yrotation Zrotation
									JOINT LeftHandMiddle2
									{
										OFFSET 6.996567 0.000000 0.000000
										CHANNELS 3 Xrotation Yrotation Zrotation
										JOINT LeftHandMiddle3
										{
											OFFSET 7.015945 0.000000 0.000000
											CHANNELS 3 Xrotation Yrotation Zrotation
											JOINT LeftHandMiddle4
											{
												OFFSET 7.721573 0.000000 0.000000
												CHANNELS 3 Xrotation Yrotation Zrotation
												End Site
												{
													OFFSET -4.651108 6.158463 0.251582
												}
											}
										}
									}
								}
								JOINT LeftHandIndex1
								{
									OFFSET 21.310577 -0.490082 6.209344
									CHANNELS 3 Xrotation Yrotation Zrotation
									JOINT LeftHandIndex2
									{
										OFFSET 7.536453 0.000000 0.000000
										CHANNELS 3 Xrotation Yrotation Zrotation
										JOINT LeftHandIndex3
										{
											OFFSET 7.512344 0.000000 0.000000
											CHANNELS 3 Xrotation Yrotation Zrotation
											JOINT LeftHandIndex4
											{
												OFFSET 10.212402 0.000000 0.000001
												CHANNELS 3 Xrotation Yrotation Zrotation
												End Site
												{
													OFFSET -5.180801 8.690506 1.388433
												}
											}
										}
									}
								}
							}
						}
					}
				}
				JOINT RightShoulder
				{
					OFFSET -17.399500 24.608795 1.168800
					CHANNELS 3 Xrotation Yrotation Zrotation
					JOINT RightArm
					{
						OFFSET -18.980635 5.765305 1.818600
						CHANNELS 3 Xrotation Yrotation Zrotation
						JOINT RightForeArm
						{
							OFFSET -49.290169 0.000000 0.000000
							CHANNELS 3 Xrotation Yrotation Zrotation
							JOINT RightHand
							{
								OFFSET -31.562012 0.000000 0.000000
								CHANNELS 3 Xrotation Yrotation Zrotation
								JOINT RightHandThumb1
								{
									OFFSET -6.133995 -4.388519 7.076070
									CHANNELS 3 Xrotation Yrotation Zrotation
									JOINT RightHandThumb2
									{
										OFFSET -6.037666 -3.485840 3.485847
										CHANNELS 3 Xrotation Yrotation Zrotation
										JOINT RightHandThumb3
										{
											OFFSET -6.496506 -3.750763 3.750761
											CHANNELS 3 Xrotation Yrotation Zrotation
											JOINT RightHandThumb4
											{
												OFFSET -5.616882 -3.242905 3.242910
												CHANNELS 3 Xrotation Yrotation Zrotation
												End Site
												{
													OFFSET 1.254608 7.132141 0.375429
												}
											}
										}
									}
								}
								JOINT RightHandIndex1
								{
									OFFSET -21.310577 -0.490082 6.209344
									CHANNELS 3 Xrotation Yrotation Zrotation
									JOINT RightHandIndex2
									{
										OFFSET -7.536453 0.000000 0.000000
										CHANNELS 3 Xrotation Yrotation Zrotation
										JOINT RightHandIndex3
										{
											OFFSET -7.512344 0.000000 0.000000
											CHANNELS 3 Xrotation Yrotation Zrotation
											JOINT RightHandIndex4
											{
												OFFSET -10.212402 0.000000 0.000001
												CHANNELS 3 Xrotation Yrotation Zrotation
												End Site
												{
													OFFSET 5.180801 8.690506 1.388433
												}
											}
										}
									}
								}
								JOINT RightHandMiddle1
								{
									OFFSET -23.373947 0.000000 0.000001
									CHANNELS 3 Xrotation Yrotation Zrotation
									JOINT RightHandMiddle2
									{
										OFFSET -6.996567 0.000000 0.000000
										CHANNELS 3 Xrotation Yrotation Zrotation
										JOINT RightHandMiddle3
										{
											OFFSET -7.015945 0.000000 0.000000
											CHANNELS 3 Xrotation Yrotation Zrotation
											JOINT RightHandMiddle4
											{
												OFFSET -7.721573 0.000000 0.000000
												CHANNELS 3 Xrotation Yrotation Zrotation
												End Site
												{
													OFFSET 4.651108 6.158463 0.251582
												}
											}
										}
									}
								}
								JOINT RightHandRing1
								{
									OFFSET -22.726120 -0.094986 -6.500475
									CHANNELS 3 Xrotation Yrotation Zrotation
									JOINT RightHandRing2
									{
										OFFSET -6.408615 0.000000 0.000000
										CHANNELS 3 Xrotation Yrotation Zrotation
										JOINT RightHandRing3
										{
											OFFSET -6.150223 0.000000 0.000000
											CHANNELS 3 Xrotation Yrotation Zrotation
											JOINT RightHandRing4
											{
												OFFSET -6.145386 0.000000 0.000000
												CHANNELS 3 Xrotation Yrotation Zrotation
												End Site
												{
													OFFSET 3.671402 4.923981 -0.202372
												}
											}
										}
									}
								}
								JOINT RightHandPinky1
								{
									OFFSET -18.920792 -0.453171 -11.426712
									CHANNELS 3 Xrotation Yrotation Zrotation
									JOINT RightHandPinky2
									{
										OFFSET -4.919586 0.000000 0.000000
										CHANNELS 3 Xrotation Yrotation Zrotation
										JOINT RightHandPinky3
										{
											OFFSET -5.233047 0.000000 0.000000
											CHANNELS 3 Xrotation Yrotation Zrotation
											JOINT RightHandPinky4
											{
												OFFSET -5.571716 0.000000 0.000000
												CHANNELS 3 Xrotation Yrotation Zrotation
												End Site
												{
													OFFSET 3.459808 4.342407 -0.466164
												}
											}
										}
									}
								}
							}
						}
					}
				}
			}
		}
	}
	JOINT LeftUpLeg
	{
		OFFSET 19.899099 -7.885101 -3.429500
		CHANNELS 3 Xrotation Yrotation Zrotation
		JOINT LeftLeg
		{
			OFFSET 1.745560 -36.997807 10.304700
			CHANNELS 3 Xrotation Yrotation Zrotation
			JOINT LeftFoot
			{
				OFFSET -1.745558 -29.803308 -13.615400
				CHANNELS 3 Xrotation Yrotation Zrotation
				JOINT LeftToeBase
				{
					OFFSET 1.181900 -18.539904 15.226099
					CHANNELS 3 Xrotation Yrotation Zrotation
					JOINT LeftToe_End
					{
						OFFSET -0.863701 1.402801 16.534700
						CHANNELS 3 Xrotation Yrotation Zrotation
						End Site
						{
							OFFSET 0.000000 16.616566 0.000000
						}
					}
				}
			}
		}
	}
	JOINT RightUpLeg
	{
		OFFSET -19.899099 -7.885101 -3.429500
		CHANNELS 3 Xrotation Yrotation Zrotation
		JOINT RightLeg
		{
			OFFSET -1.745560 -36.997807 10.304700
			CHANNELS 3 Xrotation Yrotation Zrotation
			JOINT RightFoot
			{
				OFFSET 1.745558 -29.803308 -13.615400
				CHANNELS 3 Xrotation Yrotation Zrotation
				JOINT RightToeBase
				{
					OFFSET -1.181900 -18.539904 15.226099
					CHANNELS 3 Xrotation Yrotation Zrotation
					JOINT RightToe_End
					{
						OFFSET 0.863701 1.402801 16.534700
						CHANNELS 3 Xrotation Yrotation Zrotation
						End Site
						{
							OFFSET 0.000000 16.616566 0.000000
						}
					}
				}
			}
		}
	}
}
MOTION
Frames: 4
Frame Time: 0.033333
1.041675 115.625336 7.411819 -82.990862 0.614641 -0.983442 4.567230 -0.392612 0.968629 6.715071 -0.835126 0.708373 6.731696 -0.829342 0.812997 10.857911 -1.224425 -2.757417 24.289024 -10.478676 -0.867243 -0.000000 -0.000001 -0.000000 -0.621134 2.655272 -11.550606 33.594507 -29.919558 -39.492967 0.000470 -82.907650 0.000465 -13.125492 -7.491149 -7.251925 6.590545 -4.958655 16.122663 7.178865 21.567325 2.147318 -3.980831 36.507501 21.976000 0.000001 -0.000000 0.000001 2.123434 10.735886 -14.817554 0.167494 1.392248 -13.719346 0.169824 1.401687 -13.814467 0.000002 0.000006 -0.000003 2.098727 8.644310 -21.209660 0.169796 1.401611 -13.813547 0.169782 1.401613 -13.813546 0.000001 -0.000002 -0.000000 1.376917 6.461960 -24.994160 0.169882 1.401964 -13.817112 0.169787 1.401621 -13.813556 -0.000002 0.000002 0.000011 0.659526 4.932358 -26.024455 0.169789 1.401614 -13.813533 0.169790 1.401622 -13.813545 0.000002 0.000003 0.000001 1.633649 -6.998241 21.098762 -6.708397 46.139734 36.958382 -0.000020 115.800257 0.000050 0.084954 12.154527 -12.226109 28.000200 40.839368 15.824092 9.274887 -39.604627 -3.725546 -2.785695 -37.960699 -21.297290 0.000003 0.000001 0.000001 1.344348 13.083192 0.907662 1.759373 -3.647386 51.490559 0.676333 -2.418979 31.236613 0.000001 0.000002 0.000001 -0.059408 -0.041110 2.719289 1.928679 -3.775624 54.105620 0.770686 -2.568025 33.405823 0.000002 0.000002 -0.000004 0.235067 -5.340024 65.060830 1.833424 -3.704959 52.645438 1.808570 -3.685893 52.259850 0.000001 0.000000 -0.000002 3.096065 -6.645433 69.734148 1.500664 -3.426018 47.298681 1.500665 -3.426016 47.298718 0.000000 -0.000003 0.000004 -14.924160 12.523476 21.950860 8.513529 8.340150 1.604885 30.974464 30.075529 -33.449117 -4.481866 -0.000000 -0.000001 -0.000000 -0.000000 0.000000 -15.053638 -10.389113 -13.309772 8.586941 -7.604240 -9.100477 43.865807 -29.735782 35.201286 -9.136134 0.000006 -0.000005 -0.000000 -0.000002 -0.000000 
1.046264 115.617126 7.402534 -83.183323 0.757922 -0.937584 4.446063 -0.396344 0.985364 6.472685 -0.846990 0.724066 6.489259 -0.838614 0.828372 10.744613 -1.203415 -2.662526 22.831161 -10.229713 -0.893322 -0.000001 0.000001 -0.000000 -0.607525 2.662007 -11.553758 34.006255 -30.006435 -39.328154 0.000539 -82.840366 0.000484 -13.446634 -7.358275 -7.232315 6.590543 -4.958653 16.122660 7.178869 21.567321 2.147316 -3.980826 36.507498 21.976000 0.000003 -0.000000 0.000002 2.123429 10.735886 -14.817552 0.167494 1.392241 -13.719346 0.169824 1.401686 -13.814474 0.000001 -0.000001 -0.000002 2.098722 8.644305 -21.209658 0.169798 1.401607 -13.813544 0.169785 1.401613 -13.813538 -0.000001 0.000004 0.000002 1.376913 6.461963 -24.994159 0.169882 1.401965 -13.817112 0.169786 1.401621 -13.813556 0.000003 -0.000002 0.000001 0.659516 4.932361 -26.024450 0.169792 1.401609 -13.813538 0.169788 1.401621 -13.813544 -0.000000 0.000005 0.000002 1.609132 -7.016545 20.861267 -8.745732 46.545519 37.926162 0.000037 114.185108 -0.000008 -0.600102 12.299616 -12.609771 28.000190 40.839361 15.824087 9.274835 -39.604637 -3.725591 -2.785685 -37.960699 -21.297297 0.000004 0.000004 0.000001 1.344347 13.083180 0.907677 1.759367 -3.647380 51.490570 0.676320 -2.418985 31.236596 -0.000003 -0.000001 0.000001 -0.059417 -0.041118 2.719301 1.928674 -3.775624 54.105620 0.770720 -2.568021 33.405820 0.000000 0.000000 -0.000009 0.235055 -5.340038 65.060844 1.833436 -3.704966 52.645445 1.808576 -3.685919 52.259837 -0.000002 -0.000001 -0.000005 3.096063 -6.645425 69.734162 1.500667 -3.426020 47.298684 1.500665 -3.426023 47.298701 0.000002 -0.000000 0.000002 -14.744078 12.808381 21.829872 8.383279 8.382356 1.581855 30.776600 29.948129 -33.385767 -4.397487 0.000005 -0.000006 -0.000001 0.000002 -0.000000 -14.841397 -10.472365 -13.403797 8.660862 -7.571142 -9.082605 43.835427 -29.759295 35.247184 -9.136134 0.000008 -0.000006 -0.000000 0.000002 0.000000 
1.056088 115.620148 7.407776 -83.442843 0.890438 -0.884669 4.319590 -0.434345 0.999567 6.218852 -0.918786 0.736278 6.235374 -0.909662 0.839369 10.563521 -1.198791 -2.556015 20.986829 -10.042965 -0.943637 -0.000000 0.000000 -0.000000 -0.593725 2.668264 -11.556956 34.425239 -29.947770 -39.280346 -0.000153 -82.841384 -0.000186 -13.723748 -7.209873 -7.172836 6.590541 -4.958662 16.122656 7.178867 21.567316 2.147321 -3.980837 36.507508 21.976004 0.000004 -0.000000 0.000001 2.123433 10.735883 -14.817556 0.167498 1.392243 -13.719352 0.169821 1.401681 -13.814469 0.000003 0.000000 -0.000002 2.098722 8.644309 -21.209665 0.169795 1.401609 -13.813543 0.169779 1.401613 -13.813539 0.000003 -0.000003 0.000001 1.376913 6.461964 -24.994160 0.169884 1.401963 -13.817110 0.169786 1.401622 -13.813556 -0.000001 -0.000001 0.000006 0.659516 4.932361 -26.024457 0.169790 1.401615 -13.813540 0.169792 1.401620 -13.813545 0.000001 0.000001 0.000001 1.585310 -7.033275 20.549162 -10.915543 47.155937 38.687376 -0.000059 112.559387 0.000093 -1.703362 12.408290 -13.001151 28.000217 40.839371 15.824083 9.274881 -39.604633 -3.725555 -2.785686 -37.960699 -21.297291 0.000002 0.000002 -0.000001 1.344338 13.083185 0.907676 1.759378 -3.647381 51.490563 0.676315 -2.418980 31.236603 0.000001 0.000000 -0.000001 -0.059420 -0.041116 2.719288 1.928681 -3.775624 54.105630 0.770700 -2.568024 33.405820 -0.000000 0.000002 -0.000004 0.235065 -5.340025 65.060844 1.833429 -3.704965 52.645428 1.808579 -3.685916 52.259857 -0.000001 -0.000001 -0.000005 3.096058 -6.645435 69.734169 1.500663 -3.426019 47.298708 1.500662 -3.426022 47.298698 0.000002 -0.000001 -0.000001 -14.388647 12.899499 21.816498 8.246017 8.425304 1.285329 30.594046 29.883491 -33.330237 -4.397630 -0.000006 -0.000016 -0.000000 -0.000001 -0.000000 -14.603884 -10.932271 -13.531279 8.818354 -7.550298 -9.069696 43.466173 -29.819178 35.261784 -9.136133 0.000009 -0.000005 -0.000000 0.000001 -0.000000 
1.061792 115.656242 7.407745 -83.742702 1.002953 -0.822203 4.197210 -0.563176 0.989711 5.971575 -1.185336 0.694029 5.987625 -1.167284 0.805988 10.203416 -1.211948 -2.382989 18.736153 -9.866695 -1.006032 0.000000 0.000001 -0.000000 -0.578057 2.673534 -11.560747 35.121116 -29.594817 -39.120728 -0.000191 -83.127780 -0.000178 -14.093981 -7.044215 -6.687530 6.590540 -4.958660 16.122658 7.178865 21.567323 2.147313 -3.980826 36.507501 21.976006 0.000003 0.000001 0.000001 2.123432 10.735879 -14.817556 0.167496 1.392243 -13.719352 0.169822 1.401688 -13.814467 0.000001 -0.000004 -0.000001 2.098726 8.644307 -21.209663 0.169793 1.401603 -13.813550 0.169782 1.401618 -13.813544 -0.000002 -0.000003 0.000001 1.376914 6.461962 -24.994160 0.169885 1.401958 -13.817113 0.169790 1.401618 -13.813561 -0.000001 0.000003 0.000007 0.659518 4.932361 -26.024453 0.169785 1.401616 -13.813539 0.169790 1.401627 -13.813543 -0.000000 -0.000000 0.000001 1.559866 -7.062229 20.240820 -13.664126 47.636505 39.921441 0.000071 111.015723 -0.000033 -3.427632 12.712554 -12.660521 28.000180 40.839378 15.824104 9.274850 -39.604627 -3.725588 -2.785690 -37.960696 -21.297290 0.000005 0.000002 -0.000002 1.344350 13.083182 0.907666 1.759366 -3.647387 51.490556 0.676339 -2.418971 31.236607 -0.000002 -0.000001 -0.000001 -0.059431 -0.041115 2.719282 1.928675 -3.775628 54.105644 0.770706 -2.568023 33.405813 0.000000 -0.000000 -0.000002 0.235058 -5.340017 65.060858 1.833423 -3.704962 52.645438 1.808568 -3.685903 52.259850 0.000002 -0.000001 0.000002 3.096045 -6.645432 69.734162 1.500670 -3.426022 47.298698 1.500676 -3.426021 47.298715 0.000000 -0.000002 -0.000001 -13.929780 13.018146 21.850940 8.085403 8.464336 0.872210 30.369019 29.851198 -33.229605 -4.397619 0.000008 0.000001 -0.000000 0.000002 -0.000000 -14.318315 -11.621102 -13.670478 8.989057 -7.544192 -9.061924 42.889012 -29.899641 35.244657 -9.136135 0.000008 -0.000004 0.000000 -0.000001 0.000000 
